# xmcd
#
# Track frame offsets:
#       150
#       18945
#       35552
#       48067
#       65940
#       83637
#       93985
#       107587
#       127160
#       141877
#       151767
#       168655
#       182855
#       191145
#       206937
#       221412
#       238445
#       250560
#       264135
#       278700
#       289022
#       299027
#
# Disc length: 4177 seconds
#
#
# Revision: 0
# Processed by: cddbd v1.4PL0 Copyright (c) Steve Scherf et al.
# Submitted via: Visual Ripper tool of Visual MP3 v4.18
#
DISCID=50104f16
DTITLE=Grupo Agreste - Grupo Agreste
DYEAR=1900
DGENRE=Blues
TTITLE0=A Lenda do Arco-Íris
TTITLE1=Andança
TTITLE2=Quebra de Milho
TTITLE3=Bandeira Boiadeira
TTITLE4=Ave de Arribação
TTITLE5=Mutirão
TTITLE6=Chegança
TTITLE7=Poente Cigana (Gerais)
TTITLE8=Lamento Agreste
TTITLE9=Flor de Araçá
TTITLE10=Praça da Matriz
TTITLE11=Clareando (Morro Velho)
TTITLE12=Cantiga de Roda
TTITLE13=Zumbi
TTITLE14=Rasante
TTITLE15=Saudade Teimosa
TTITLE16=Ana Bela
TTITLE17=Jaiba
TTITLE18=Calix Bento
TTITLE19=Cachoeirinha
TTITLE20=Messias Latino
TTITLE21=Bumba meu Boi
EXTD=
EXTT0=
EXTT1=
EXTT2=
EXTT3=
EXTT4=
EXTT5=
EXTT6=
EXTT7=
EXTT8=
EXTT9=
EXTT10=
EXTT11=
EXTT12=
EXTT13=
EXTT14=
EXTT15=
EXTT16=
EXTT17=
EXTT18=
EXTT19=
EXTT20=
EXTT21=
PLAYORDER=
